<mxfile host="Electron" agent="Mozilla/5.0 (Windows NT 10.0; Win64; x64) AppleWebKit/537.36 (KHTML, like Gecko) draw.io/28.2.8 Chrome/140.0.7339.240 Electron/38.4.0 Safari/537.36" version="28.2.8">
  <diagram name="Pagina-1" id="h3KytSsKSPlLISnvl1NA">
    <mxGraphModel dx="320" dy="574" grid="1" gridSize="10" guides="1" tooltips="1" connect="1" arrows="1" fold="1" page="1" pageScale="1" pageWidth="827" pageHeight="1169" math="0" shadow="0">
      <root>
        <mxCell id="0" />
        <mxCell id="1" parent="0" />
        <mxCell id="eT3uvIroiJeg1GaoZa_Z-3" value="Wedstrijd" style="swimlane;fontStyle=1;childLayout=stackLayout;horizontal=1;startSize=26;horizontalStack=0;resizeParent=1;resizeParentMax=0;resizeLast=0;collapsible=1;marginBottom=0;align=center;fontSize=14;strokeColor=#666666;fillColor=#f5f5f5;fontColor=#333333;" vertex="1" parent="1">
          <mxGeometry x="400" y="400" width="160" height="100" as="geometry" />
        </mxCell>
        <mxCell id="eT3uvIroiJeg1GaoZa_Z-4" value="speeldatum&lt;br&gt;stad&lt;br&gt;gewonnenSets&lt;br&gt;verlorenSets" style="text;strokeColor=none;fillColor=none;spacingLeft=4;spacingRight=4;overflow=hidden;rotatable=0;points=[[0,0.5],[1,0.5]];portConstraint=eastwest;fontSize=12;html=1;" vertex="1" parent="eT3uvIroiJeg1GaoZa_Z-3">
          <mxGeometry y="26" width="160" height="74" as="geometry" />
        </mxCell>
        <mxCell id="eT3uvIroiJeg1GaoZa_Z-5" value="Speler" style="swimlane;fontStyle=1;childLayout=stackLayout;horizontal=1;startSize=26;horizontalStack=0;resizeParent=1;resizeParentMax=0;resizeLast=0;collapsible=1;marginBottom=0;align=center;fontSize=14;strokeColor=#666666;fillColor=#f5f5f5;fontColor=#333333;" vertex="1" parent="1">
          <mxGeometry x="80" y="200" width="160" height="110" as="geometry" />
        </mxCell>
        <mxCell id="eT3uvIroiJeg1GaoZa_Z-6" value="&lt;u&gt;nummer&lt;/u&gt;&lt;br&gt;voornaam&lt;br&gt;achternaam&lt;div&gt;geboortedatum&lt;/div&gt;&lt;div&gt;adres&lt;/div&gt;" style="text;strokeColor=none;fillColor=none;spacingLeft=4;spacingRight=4;overflow=hidden;rotatable=0;points=[[0,0.5],[1,0.5]];portConstraint=eastwest;fontSize=12;html=1;" vertex="1" parent="eT3uvIroiJeg1GaoZa_Z-5">
          <mxGeometry y="26" width="160" height="84" as="geometry" />
        </mxCell>
        <mxCell id="eT3uvIroiJeg1GaoZa_Z-8" value="Team" style="swimlane;fontStyle=1;childLayout=stackLayout;horizontal=1;startSize=26;horizontalStack=0;resizeParent=1;resizeParentMax=0;resizeLast=0;collapsible=1;marginBottom=0;align=center;fontSize=14;strokeColor=#666666;fillColor=#f5f5f5;fontColor=#333333;" vertex="1" parent="1">
          <mxGeometry x="400" y="200" width="160" height="90" as="geometry" />
        </mxCell>
        <mxCell id="eT3uvIroiJeg1GaoZa_Z-9" value="&lt;u&gt;nummer&lt;/u&gt;&lt;br&gt;divisie&lt;br&gt;aanvoerder" style="text;strokeColor=none;fillColor=none;spacingLeft=4;spacingRight=4;overflow=hidden;rotatable=0;points=[[0,0.5],[1,0.5]];portConstraint=eastwest;fontSize=12;html=1;" vertex="1" parent="eT3uvIroiJeg1GaoZa_Z-8">
          <mxGeometry y="26" width="160" height="64" as="geometry" />
        </mxCell>
        <mxCell id="eT3uvIroiJeg1GaoZa_Z-10" value="Boete" style="swimlane;fontStyle=1;childLayout=stackLayout;horizontal=1;startSize=26;horizontalStack=0;resizeParent=1;resizeParentMax=0;resizeLast=0;collapsible=1;marginBottom=0;align=center;fontSize=14;strokeColor=#666666;fillColor=#f5f5f5;fontColor=#333333;" vertex="1" parent="1">
          <mxGeometry x="80" y="440" width="160" height="90" as="geometry" />
        </mxCell>
        <mxCell id="eT3uvIroiJeg1GaoZa_Z-11" value="&lt;u&gt;nummer&lt;/u&gt;&lt;br&gt;soort&lt;br&gt;bedrag&lt;br&gt;betaaldatum" style="text;strokeColor=none;fillColor=none;spacingLeft=4;spacingRight=4;overflow=hidden;rotatable=0;points=[[0,0.5],[1,0.5]];portConstraint=eastwest;fontSize=12;html=1;" vertex="1" parent="eT3uvIroiJeg1GaoZa_Z-10">
          <mxGeometry y="26" width="160" height="64" as="geometry" />
        </mxCell>
        <mxCell id="eT3uvIroiJeg1GaoZa_Z-14" value="" style="endArrow=none;html=1;rounded=0;exitX=1.006;exitY=0.173;exitDx=0;exitDy=0;exitPerimeter=0;entryX=0;entryY=0.25;entryDx=0;entryDy=0;" edge="1" parent="1" source="eT3uvIroiJeg1GaoZa_Z-5" target="eT3uvIroiJeg1GaoZa_Z-8">
          <mxGeometry width="50" height="50" relative="1" as="geometry">
            <mxPoint x="280" y="380" as="sourcePoint" />
            <mxPoint x="330" y="330" as="targetPoint" />
          </mxGeometry>
        </mxCell>
        <mxCell id="eT3uvIroiJeg1GaoZa_Z-15" value="" style="endArrow=none;html=1;rounded=0;exitX=1.013;exitY=0.655;exitDx=0;exitDy=0;exitPerimeter=0;entryX=0.006;entryY=0.891;entryDx=0;entryDy=0;entryPerimeter=0;" edge="1" parent="1" source="eT3uvIroiJeg1GaoZa_Z-6" target="eT3uvIroiJeg1GaoZa_Z-9">
          <mxGeometry width="50" height="50" relative="1" as="geometry">
            <mxPoint x="280" y="380" as="sourcePoint" />
            <mxPoint x="330" y="330" as="targetPoint" />
          </mxGeometry>
        </mxCell>
        <mxCell id="eT3uvIroiJeg1GaoZa_Z-16" value="speeltIn &amp;gt;" style="text;html=1;whiteSpace=wrap;strokeColor=none;fillColor=none;align=center;verticalAlign=middle;rounded=0;" vertex="1" parent="1">
          <mxGeometry x="290" y="200" width="60" height="30" as="geometry" />
        </mxCell>
        <mxCell id="eT3uvIroiJeg1GaoZa_Z-17" value="1..N" style="text;html=1;whiteSpace=wrap;strokeColor=none;fillColor=none;align=center;verticalAlign=middle;rounded=0;" vertex="1" parent="1">
          <mxGeometry x="230" y="190" width="60" height="30" as="geometry" />
        </mxCell>
        <mxCell id="eT3uvIroiJeg1GaoZa_Z-18" value="0..N" style="text;html=1;whiteSpace=wrap;strokeColor=none;fillColor=none;align=center;verticalAlign=middle;rounded=0;" vertex="1" parent="1">
          <mxGeometry x="354" y="200" width="60" height="30" as="geometry" />
        </mxCell>
        <mxCell id="eT3uvIroiJeg1GaoZa_Z-19" value="isAanvoerderVan &amp;gt;" style="text;html=1;whiteSpace=wrap;strokeColor=none;fillColor=none;align=center;verticalAlign=middle;rounded=0;" vertex="1" parent="1">
          <mxGeometry x="250" y="260" width="140" height="30" as="geometry" />
        </mxCell>
        <mxCell id="eT3uvIroiJeg1GaoZa_Z-20" value="1..1" style="text;html=1;whiteSpace=wrap;strokeColor=none;fillColor=none;align=center;verticalAlign=middle;rounded=0;" vertex="1" parent="1">
          <mxGeometry x="220" y="280" width="60" height="30" as="geometry" />
        </mxCell>
        <mxCell id="eT3uvIroiJeg1GaoZa_Z-21" value="0..N" style="text;html=1;whiteSpace=wrap;strokeColor=none;fillColor=none;align=center;verticalAlign=middle;rounded=0;" vertex="1" parent="1">
          <mxGeometry x="354" y="280" width="60" height="30" as="geometry" />
        </mxCell>
        <mxCell id="eT3uvIroiJeg1GaoZa_Z-22" value="" style="endArrow=none;html=1;rounded=0;entryX=0.506;entryY=1.031;entryDx=0;entryDy=0;entryPerimeter=0;exitX=0.5;exitY=0;exitDx=0;exitDy=0;" edge="1" parent="1" source="eT3uvIroiJeg1GaoZa_Z-3" target="eT3uvIroiJeg1GaoZa_Z-9">
          <mxGeometry width="50" height="50" relative="1" as="geometry">
            <mxPoint x="490" y="430" as="sourcePoint" />
            <mxPoint x="540" y="380" as="targetPoint" />
          </mxGeometry>
        </mxCell>
        <mxCell id="eT3uvIroiJeg1GaoZa_Z-23" value="V speelt" style="text;html=1;whiteSpace=wrap;strokeColor=none;fillColor=none;align=center;verticalAlign=middle;rounded=0;" vertex="1" parent="1">
          <mxGeometry x="480" y="330" width="60" height="30" as="geometry" />
        </mxCell>
        <mxCell id="eT3uvIroiJeg1GaoZa_Z-24" value="0..N" style="text;html=1;whiteSpace=wrap;strokeColor=none;fillColor=none;align=center;verticalAlign=middle;rounded=0;" vertex="1" parent="1">
          <mxGeometry x="470" y="290" width="60" height="30" as="geometry" />
        </mxCell>
        <mxCell id="eT3uvIroiJeg1GaoZa_Z-25" value="0..N" style="text;html=1;whiteSpace=wrap;strokeColor=none;fillColor=none;align=center;verticalAlign=middle;rounded=0;" vertex="1" parent="1">
          <mxGeometry x="430" y="370" width="60" height="30" as="geometry" />
        </mxCell>
        <mxCell id="eT3uvIroiJeg1GaoZa_Z-26" value="" style="endArrow=none;html=1;rounded=0;exitX=0.5;exitY=0;exitDx=0;exitDy=0;" edge="1" parent="1" source="eT3uvIroiJeg1GaoZa_Z-10">
          <mxGeometry width="50" height="50" relative="1" as="geometry">
            <mxPoint x="190" y="470" as="sourcePoint" />
            <mxPoint x="160" y="310" as="targetPoint" />
          </mxGeometry>
        </mxCell>
        <mxCell id="eT3uvIroiJeg1GaoZa_Z-28" value="V heeftGekregen" style="text;html=1;whiteSpace=wrap;strokeColor=none;fillColor=none;align=center;verticalAlign=middle;rounded=0;" vertex="1" parent="1">
          <mxGeometry x="150" y="350" width="120" height="30" as="geometry" />
        </mxCell>
        <mxCell id="eT3uvIroiJeg1GaoZa_Z-29" value="1..1" style="text;html=1;whiteSpace=wrap;strokeColor=none;fillColor=none;align=center;verticalAlign=middle;rounded=0;" vertex="1" parent="1">
          <mxGeometry x="110" y="310" width="60" height="30" as="geometry" />
        </mxCell>
        <mxCell id="eT3uvIroiJeg1GaoZa_Z-30" value="0..N" style="text;html=1;whiteSpace=wrap;strokeColor=none;fillColor=none;align=center;verticalAlign=middle;rounded=0;" vertex="1" parent="1">
          <mxGeometry x="110" y="410" width="60" height="30" as="geometry" />
        </mxCell>
        <mxCell id="eT3uvIroiJeg1GaoZa_Z-32" value="U" style="ellipse;whiteSpace=wrap;html=1;strokeColor=#b85450;fillColor=#f8cecc;" vertex="1" parent="1">
          <mxGeometry x="330" y="430" width="20" height="20" as="geometry" />
        </mxCell>
        <mxCell id="eT3uvIroiJeg1GaoZa_Z-33" value="" style="endArrow=none;html=1;rounded=0;exitX=1;exitY=0;exitDx=0;exitDy=0;entryX=0.063;entryY=0.189;entryDx=0;entryDy=0;entryPerimeter=0;" edge="1" parent="1" source="eT3uvIroiJeg1GaoZa_Z-32" target="eT3uvIroiJeg1GaoZa_Z-4">
          <mxGeometry width="50" height="50" relative="1" as="geometry">
            <mxPoint x="420" y="440" as="sourcePoint" />
            <mxPoint x="470" y="390" as="targetPoint" />
          </mxGeometry>
        </mxCell>
        <mxCell id="eT3uvIroiJeg1GaoZa_Z-34" value="" style="endArrow=none;html=1;rounded=0;exitX=1;exitY=1;exitDx=0;exitDy=0;entryX=0.022;entryY=0.373;entryDx=0;entryDy=0;entryPerimeter=0;" edge="1" parent="1" source="eT3uvIroiJeg1GaoZa_Z-32" target="eT3uvIroiJeg1GaoZa_Z-4">
          <mxGeometry width="50" height="50" relative="1" as="geometry">
            <mxPoint x="420" y="440" as="sourcePoint" />
            <mxPoint x="470" y="390" as="targetPoint" />
          </mxGeometry>
        </mxCell>
      </root>
    </mxGraphModel>
  </diagram>
</mxfile>
